<?xml version="1.0" encoding="UTF-8"?>
<svg xmlns="http://www.w3.org/2000/svg" xmlns:xlink="http://www.w3.org/1999/xlink" width="442pt" height="329pt" viewBox="0 0 442 329" version="1.1">
<g id="surface408">
<rect x="0" y="0" width="442" height="329" style="fill:rgb(100%,100%,100%);fill-opacity:1;stroke:none;"/>
<path style="fill:none;stroke-width:1;stroke-linecap:butt;stroke-linejoin:miter;stroke:rgb(0%,0%,0%);stroke-opacity:1;stroke-miterlimit:10;" d="M 270.164062 205.582031 L 229.28125 175.878906 "/>
<path style="fill:none;stroke-width:1;stroke-linecap:butt;stroke-linejoin:miter;stroke:rgb(0%,0%,0%);stroke-opacity:1;stroke-miterlimit:10;" d="M 275.164062 220.96875 L 259.546875 269.03125 "/>
<path style="fill:none;stroke-width:1;stroke-linecap:butt;stroke-linejoin:miter;stroke:rgb(0%,0%,0%);stroke-opacity:1;stroke-miterlimit:10;" d="M 268.742188 214.550781 L 259.234375 217.640625 "/>
<path style="fill:none;stroke-width:1;stroke-linecap:butt;stroke-linejoin:miter;stroke:rgb(0%,0%,0%);stroke-opacity:1;stroke-miterlimit:10;" d="M 287.765625 208.367188 L 297.273438 205.277344 "/>
<path style="fill:none;stroke-width:1;stroke-linecap:butt;stroke-linejoin:miter;stroke:rgb(0%,0%,0%);stroke-opacity:1;stroke-miterlimit:10;" d="M 213.101562 175.878906 L 172.21875 205.582031 "/>
<path style="fill:none;stroke-width:1;stroke-linecap:butt;stroke-linejoin:miter;stroke:rgb(0%,0%,0%);stroke-opacity:1;stroke-miterlimit:10;" d="M 221.191406 180 L 221.191406 190 "/>
<path style="fill:none;stroke-width:1;stroke-linecap:butt;stroke-linejoin:miter;stroke:rgb(0%,0%,0%);stroke-opacity:1;stroke-miterlimit:10;" d="M 221.191406 160 L 221.191406 150 "/>
<path style="fill:none;stroke-width:1;stroke-linecap:butt;stroke-linejoin:miter;stroke:rgb(0%,0%,0%);stroke-opacity:1;stroke-miterlimit:10;" d="M 167.21875 220.96875 L 182.832031 269.03125 "/>
<path style="fill:none;stroke-width:1;stroke-linecap:butt;stroke-linejoin:miter;stroke:rgb(0%,0%,0%);stroke-opacity:1;stroke-miterlimit:10;" d="M 173.636719 214.550781 L 183.148438 217.640625 "/>
<path style="fill:none;stroke-width:1;stroke-linecap:butt;stroke-linejoin:miter;stroke:rgb(0%,0%,0%);stroke-opacity:1;stroke-miterlimit:10;" d="M 154.617188 208.367188 L 145.105469 205.277344 "/>
<path style="fill:none;stroke-width:1;stroke-linecap:butt;stroke-linejoin:miter;stroke:rgb(0%,0%,0%);stroke-opacity:1;stroke-miterlimit:10;" d="M 195.921875 278.542969 L 246.457031 278.542969 "/>
<path style="fill:none;stroke-width:1;stroke-linecap:butt;stroke-linejoin:miter;stroke:rgb(0%,0%,0%);stroke-opacity:1;stroke-miterlimit:10;" d="M 191.800781 270.449219 L 197.679688 262.359375 "/>
<path style="fill:none;stroke-width:1;stroke-linecap:butt;stroke-linejoin:miter;stroke:rgb(0%,0%,0%);stroke-opacity:1;stroke-miterlimit:10;" d="M 250.578125 270.449219 L 244.703125 262.359375 "/>
<path style="fill:none;stroke-width:1;stroke-linecap:butt;stroke-linejoin:miter;stroke:rgb(0%,0%,0%);stroke-opacity:1;stroke-miterlimit:10;" d="M 239.722656 220.730469 L 202.660156 220.730469 "/>
<path style="fill:none;stroke-width:1;stroke-linecap:butt;stroke-linejoin:miter;stroke:rgb(0%,0%,0%);stroke-opacity:1;stroke-miterlimit:10;" d="M 241.632812 226.605469 L 211.648438 248.394531 "/>
<path style="fill:none;stroke-width:1;stroke-linecap:butt;stroke-linejoin:miter;stroke:rgb(0%,0%,0%);stroke-opacity:1;stroke-miterlimit:10;" d="M 218.101562 209.511719 L 206.648438 244.761719 "/>
<path style="fill:none;stroke-width:1;stroke-linecap:butt;stroke-linejoin:miter;stroke:rgb(0%,0%,0%);stroke-opacity:1;stroke-miterlimit:10;" d="M 224.28125 209.511719 L 235.734375 244.761719 "/>
<path style="fill:none;stroke-width:1;stroke-linecap:butt;stroke-linejoin:miter;stroke:rgb(0%,0%,0%);stroke-opacity:1;stroke-miterlimit:10;" d="M 200.75 226.605469 L 230.734375 248.394531 "/>
<path style="fill:none;stroke-width:1;stroke-linecap:butt;stroke-linejoin:miter;stroke:rgb(0%,0%,0%);stroke-opacity:1;stroke-miterlimit:10;" d="M 316.296875 199.097656 L 325.804688 196.007812 "/>
<path style="fill:none;stroke-width:1;stroke-linecap:butt;stroke-linejoin:miter;stroke:rgb(0%,0%,0%);stroke-opacity:1;stroke-miterlimit:10;" d="M 344.828125 189.828125 L 354.339844 186.738281 "/>
<path style="fill:none;stroke-width:1;stroke-linecap:butt;stroke-linejoin:miter;stroke:rgb(0%,0%,0%);stroke-opacity:1;stroke-miterlimit:10;" d="M 221.191406 130 L 221.191406 120 "/>
<path style="fill:none;stroke-width:1;stroke-linecap:butt;stroke-linejoin:miter;stroke:rgb(0%,0%,0%);stroke-opacity:1;stroke-miterlimit:10;" d="M 221.191406 100 L 221.191406 90 "/>
<path style="fill:none;stroke-width:1;stroke-linecap:butt;stroke-linejoin:miter;stroke:rgb(0%,0%,0%);stroke-opacity:1;stroke-miterlimit:10;" d="M 126.085938 199.097656 L 116.574219 196.007812 "/>
<path style="fill:none;stroke-width:1;stroke-linecap:butt;stroke-linejoin:miter;stroke:rgb(0%,0%,0%);stroke-opacity:1;stroke-miterlimit:10;" d="M 97.554688 189.828125 L 88.042969 186.738281 "/>
<path style="fill-rule:nonzero;fill:rgb(100%,0%,0%);fill-opacity:1;stroke-width:1;stroke-linecap:butt;stroke-linejoin:miter;stroke:rgb(0%,0%,0%);stroke-opacity:1;stroke-miterlimit:10;" d="M 288.253906 211.457031 C 288.253906 216.980469 283.777344 221.457031 278.253906 221.457031 C 272.730469 221.457031 268.253906 216.980469 268.253906 211.457031 C 268.253906 205.9375 272.730469 201.457031 278.253906 201.457031 C 283.777344 201.457031 288.253906 205.9375 288.253906 211.457031 "/>
<path style="fill-rule:nonzero;fill:rgb(100%,0%,0%);fill-opacity:1;stroke-width:1;stroke-linecap:butt;stroke-linejoin:miter;stroke:rgb(0%,0%,0%);stroke-opacity:1;stroke-miterlimit:10;" d="M 231.191406 170 C 231.191406 175.523438 226.714844 180 221.191406 180 C 215.667969 180 211.191406 175.523438 211.191406 170 C 211.191406 164.476562 215.667969 160 221.191406 160 C 226.714844 160 231.191406 164.476562 231.191406 170 "/>
<path style="fill-rule:nonzero;fill:rgb(100%,0%,0%);fill-opacity:1;stroke-width:1;stroke-linecap:butt;stroke-linejoin:miter;stroke:rgb(0%,0%,0%);stroke-opacity:1;stroke-miterlimit:10;" d="M 174.125 211.457031 C 174.125 216.980469 169.648438 221.457031 164.125 221.457031 C 158.605469 221.457031 154.125 216.980469 154.125 211.457031 C 154.125 205.9375 158.605469 201.457031 164.125 201.457031 C 169.648438 201.457031 174.125 205.9375 174.125 211.457031 "/>
<path style="fill-rule:nonzero;fill:rgb(0%,0%,0%);fill-opacity:1;stroke-width:1;stroke-linecap:butt;stroke-linejoin:miter;stroke:rgb(0%,0%,0%);stroke-opacity:1;stroke-miterlimit:10;" d="M 195.921875 278.542969 C 195.921875 284.0625 191.445312 288.542969 185.921875 288.542969 C 180.398438 288.542969 175.921875 284.0625 175.921875 278.542969 C 175.921875 273.019531 180.398438 268.542969 185.921875 268.542969 C 191.445312 268.542969 195.921875 273.019531 195.921875 278.542969 "/>
<path style="fill-rule:nonzero;fill:rgb(0%,0%,0%);fill-opacity:1;stroke-width:1;stroke-linecap:butt;stroke-linejoin:miter;stroke:rgb(0%,0%,0%);stroke-opacity:1;stroke-miterlimit:10;" d="M 266.457031 278.542969 C 266.457031 284.0625 261.980469 288.542969 256.457031 288.542969 C 250.933594 288.542969 246.457031 284.0625 246.457031 278.542969 C 246.457031 273.019531 250.933594 268.542969 256.457031 268.542969 C 261.980469 268.542969 266.457031 273.019531 266.457031 278.542969 "/>
<path style="fill-rule:nonzero;fill:rgb(0%,0%,0%);fill-opacity:1;stroke-width:1;stroke-linecap:butt;stroke-linejoin:miter;stroke:rgb(0%,0%,0%);stroke-opacity:1;stroke-miterlimit:10;" d="M 259.722656 220.730469 C 259.722656 226.253906 255.246094 230.730469 249.722656 230.730469 C 244.199219 230.730469 239.722656 226.253906 239.722656 220.730469 C 239.722656 215.207031 244.199219 210.730469 249.722656 210.730469 C 255.246094 210.730469 259.722656 215.207031 259.722656 220.730469 "/>
<path style="fill-rule:nonzero;fill:rgb(0%,0%,0%);fill-opacity:1;stroke-width:1;stroke-linecap:butt;stroke-linejoin:miter;stroke:rgb(0%,0%,0%);stroke-opacity:1;stroke-miterlimit:10;" d="M 231.191406 200 C 231.191406 205.523438 226.714844 210 221.191406 210 C 215.667969 210 211.191406 205.523438 211.191406 200 C 211.191406 194.476562 215.667969 190 221.191406 190 C 226.714844 190 231.191406 194.476562 231.191406 200 "/>
<path style="fill-rule:nonzero;fill:rgb(0%,0%,0%);fill-opacity:1;stroke-width:1;stroke-linecap:butt;stroke-linejoin:miter;stroke:rgb(0%,0%,0%);stroke-opacity:1;stroke-miterlimit:10;" d="M 202.660156 220.730469 C 202.660156 226.253906 198.179688 230.730469 192.660156 230.730469 C 187.136719 230.730469 182.660156 226.253906 182.660156 220.730469 C 182.660156 215.207031 187.136719 210.730469 192.660156 210.730469 C 198.179688 210.730469 202.660156 215.207031 202.660156 220.730469 "/>
<path style="fill-rule:nonzero;fill:rgb(0%,0%,0%);fill-opacity:1;stroke-width:1;stroke-linecap:butt;stroke-linejoin:miter;stroke:rgb(0%,0%,0%);stroke-opacity:1;stroke-miterlimit:10;" d="M 213.554688 254.269531 C 213.554688 259.792969 209.078125 264.269531 203.554688 264.269531 C 198.035156 264.269531 193.554688 259.792969 193.554688 254.269531 C 193.554688 248.746094 198.035156 244.269531 203.554688 244.269531 C 209.078125 244.269531 213.554688 248.746094 213.554688 254.269531 "/>
<path style="fill-rule:nonzero;fill:rgb(0%,0%,0%);fill-opacity:1;stroke-width:1;stroke-linecap:butt;stroke-linejoin:miter;stroke:rgb(0%,0%,0%);stroke-opacity:1;stroke-miterlimit:10;" d="M 248.824219 254.269531 C 248.824219 259.792969 244.347656 264.269531 238.824219 264.269531 C 233.300781 264.269531 228.824219 259.792969 228.824219 254.269531 C 228.824219 248.746094 233.300781 244.269531 238.824219 244.269531 C 244.347656 244.269531 248.824219 248.746094 248.824219 254.269531 "/>
<path style="fill-rule:nonzero;fill:rgb(0%,0%,0%);fill-opacity:1;stroke-width:1;stroke-linecap:butt;stroke-linejoin:miter;stroke:rgb(0%,0%,0%);stroke-opacity:1;stroke-miterlimit:10;" d="M 316.785156 202.1875 C 316.785156 207.710938 312.308594 212.1875 306.785156 212.1875 C 301.261719 212.1875 296.785156 207.710938 296.785156 202.1875 C 296.785156 196.664062 301.261719 192.1875 306.785156 192.1875 C 312.308594 192.1875 316.785156 196.664062 316.785156 202.1875 "/>
<path style="fill-rule:nonzero;fill:rgb(0%,0%,0%);fill-opacity:1;stroke-width:1;stroke-linecap:butt;stroke-linejoin:miter;stroke:rgb(0%,0%,0%);stroke-opacity:1;stroke-miterlimit:10;" d="M 345.316406 192.917969 C 345.316406 198.441406 340.839844 202.917969 335.316406 202.917969 C 329.792969 202.917969 325.316406 198.441406 325.316406 192.917969 C 325.316406 187.394531 329.792969 182.917969 335.316406 182.917969 C 340.839844 182.917969 345.316406 187.394531 345.316406 192.917969 "/>
<path style="fill-rule:nonzero;fill:rgb(0%,0%,0%);fill-opacity:1;stroke-width:1;stroke-linecap:butt;stroke-linejoin:miter;stroke:rgb(0%,0%,0%);stroke-opacity:1;stroke-miterlimit:10;" d="M 373.847656 183.648438 C 373.847656 189.171875 369.371094 193.648438 363.847656 193.648438 C 358.324219 193.648438 353.847656 189.171875 353.847656 183.648438 C 353.847656 178.125 358.324219 173.648438 363.847656 173.648438 C 369.371094 173.648438 373.847656 178.125 373.847656 183.648438 "/>
<path style="fill-rule:nonzero;fill:rgb(0%,0%,0%);fill-opacity:1;stroke-width:1;stroke-linecap:butt;stroke-linejoin:miter;stroke:rgb(0%,0%,0%);stroke-opacity:1;stroke-miterlimit:10;" d="M 231.191406 140 C 231.191406 145.523438 226.714844 150 221.191406 150 C 215.667969 150 211.191406 145.523438 211.191406 140 C 211.191406 134.476562 215.667969 130 221.191406 130 C 226.714844 130 231.191406 134.476562 231.191406 140 "/>
<path style="fill-rule:nonzero;fill:rgb(0%,0%,0%);fill-opacity:1;stroke-width:1;stroke-linecap:butt;stroke-linejoin:miter;stroke:rgb(0%,0%,0%);stroke-opacity:1;stroke-miterlimit:10;" d="M 231.191406 110 C 231.191406 115.523438 226.714844 120 221.191406 120 C 215.667969 120 211.191406 115.523438 211.191406 110 C 211.191406 104.476562 215.667969 100 221.191406 100 C 226.714844 100 231.191406 104.476562 231.191406 110 "/>
<path style="fill-rule:nonzero;fill:rgb(0%,0%,0%);fill-opacity:1;stroke-width:1;stroke-linecap:butt;stroke-linejoin:miter;stroke:rgb(0%,0%,0%);stroke-opacity:1;stroke-miterlimit:10;" d="M 231.191406 80 C 231.191406 85.523438 226.714844 90 221.191406 90 C 215.667969 90 211.191406 85.523438 211.191406 80 C 211.191406 74.476562 215.667969 70 221.191406 70 C 226.714844 70 231.191406 74.476562 231.191406 80 "/>
<path style="fill-rule:nonzero;fill:rgb(0%,0%,0%);fill-opacity:1;stroke-width:1;stroke-linecap:butt;stroke-linejoin:miter;stroke:rgb(0%,0%,0%);stroke-opacity:1;stroke-miterlimit:10;" d="M 145.59375 202.1875 C 145.59375 207.710938 141.117188 212.1875 135.59375 212.1875 C 130.070312 212.1875 125.59375 207.710938 125.59375 202.1875 C 125.59375 196.664062 130.070312 192.1875 135.59375 192.1875 C 141.117188 192.1875 145.59375 196.664062 145.59375 202.1875 "/>
<path style="fill-rule:nonzero;fill:rgb(0%,0%,0%);fill-opacity:1;stroke-width:1;stroke-linecap:butt;stroke-linejoin:miter;stroke:rgb(0%,0%,0%);stroke-opacity:1;stroke-miterlimit:10;" d="M 117.0625 192.917969 C 117.0625 198.441406 112.585938 202.917969 107.0625 202.917969 C 101.539062 202.917969 97.0625 198.441406 97.0625 192.917969 C 97.0625 187.394531 101.539062 182.917969 107.0625 182.917969 C 112.585938 182.917969 117.0625 187.394531 117.0625 192.917969 "/>
<path style="fill-rule:nonzero;fill:rgb(0%,0%,0%);fill-opacity:1;stroke-width:1;stroke-linecap:butt;stroke-linejoin:miter;stroke:rgb(0%,0%,0%);stroke-opacity:1;stroke-miterlimit:10;" d="M 88.53125 183.648438 C 88.53125 189.171875 84.054688 193.648438 78.53125 193.648438 C 73.007812 193.648438 68.53125 189.171875 68.53125 183.648438 C 68.53125 178.125 73.007812 173.648438 78.53125 173.648438 C 84.054688 173.648438 88.53125 178.125 88.53125 183.648438 "/>
<path style="fill-rule:nonzero;fill:rgb(0%,0%,0%);fill-opacity:1;stroke-width:1;stroke-linecap:butt;stroke-linejoin:miter;stroke:rgb(0%,0%,0%);stroke-opacity:1;stroke-miterlimit:10;" d="M 383.371094 177.46875 C 383.371094 178.132812 382.371094 178.132812 382.371094 177.46875 C 382.371094 176.800781 383.371094 176.800781 383.371094 177.46875 "/>
<path style="fill-rule:nonzero;fill:rgb(0%,0%,0%);fill-opacity:1;stroke-width:1;stroke-linecap:butt;stroke-linejoin:miter;stroke:rgb(0%,0%,0%);stroke-opacity:1;stroke-miterlimit:10;" d="M 388.125 175.921875 C 388.125 176.589844 387.125 176.589844 387.125 175.921875 C 387.125 175.253906 388.125 175.253906 388.125 175.921875 "/>
<path style="fill-rule:nonzero;fill:rgb(0%,0%,0%);fill-opacity:1;stroke-width:1;stroke-linecap:butt;stroke-linejoin:miter;stroke:rgb(0%,0%,0%);stroke-opacity:1;stroke-miterlimit:10;" d="M 392.878906 174.375 C 392.878906 175.042969 391.878906 175.042969 391.878906 174.375 C 391.878906 173.710938 392.878906 173.710938 392.878906 174.375 "/>
<path style="fill-rule:nonzero;fill:rgb(0%,0%,0%);fill-opacity:1;stroke-width:1;stroke-linecap:butt;stroke-linejoin:miter;stroke:rgb(0%,0%,0%);stroke-opacity:1;stroke-miterlimit:10;" d="M 221.691406 60 C 221.691406 60.667969 220.691406 60.667969 220.691406 60 C 220.691406 59.332031 221.691406 59.332031 221.691406 60 "/>
<path style="fill-rule:nonzero;fill:rgb(0%,0%,0%);fill-opacity:1;stroke-width:1;stroke-linecap:butt;stroke-linejoin:miter;stroke:rgb(0%,0%,0%);stroke-opacity:1;stroke-miterlimit:10;" d="M 221.691406 55 C 221.691406 55.667969 220.691406 55.667969 220.691406 55 C 220.691406 54.332031 221.691406 54.332031 221.691406 55 "/>
<path style="fill-rule:nonzero;fill:rgb(0%,0%,0%);fill-opacity:1;stroke-width:1;stroke-linecap:butt;stroke-linejoin:miter;stroke:rgb(0%,0%,0%);stroke-opacity:1;stroke-miterlimit:10;" d="M 221.691406 50 C 221.691406 50.667969 220.691406 50.667969 220.691406 50 C 220.691406 49.332031 221.691406 49.332031 221.691406 50 "/>
<path style="fill-rule:nonzero;fill:rgb(0%,0%,0%);fill-opacity:1;stroke-width:1;stroke-linecap:butt;stroke-linejoin:miter;stroke:rgb(0%,0%,0%);stroke-opacity:1;stroke-miterlimit:10;" d="M 60.011719 177.46875 C 60.011719 178.132812 59.011719 178.132812 59.011719 177.46875 C 59.011719 176.800781 60.011719 176.800781 60.011719 177.46875 "/>
<path style="fill-rule:nonzero;fill:rgb(0%,0%,0%);fill-opacity:1;stroke-width:1;stroke-linecap:butt;stroke-linejoin:miter;stroke:rgb(0%,0%,0%);stroke-opacity:1;stroke-miterlimit:10;" d="M 55.253906 175.921875 C 55.253906 176.589844 54.253906 176.589844 54.253906 175.921875 C 54.253906 175.253906 55.253906 175.253906 55.253906 175.921875 "/>
<path style="fill-rule:nonzero;fill:rgb(0%,0%,0%);fill-opacity:1;stroke-width:1;stroke-linecap:butt;stroke-linejoin:miter;stroke:rgb(0%,0%,0%);stroke-opacity:1;stroke-miterlimit:10;" d="M 50.5 174.375 C 50.5 175.042969 49.5 175.042969 49.5 174.375 C 49.5 173.710938 50.5 173.710938 50.5 174.375 "/>
</g>
</svg>
