<svg xmlns="http://www.w3.org/2000/svg" xmlns:xlink="http://www.w3.org/1999/xlink" version="1.1" x="0px" y="0px" viewBox="0 0 100 100" enable-background="new 0 0 100 100" xml:space="preserve"><g><g><g><path d="M36.119,26.276c-3.511,0-6.812-0.497-9.349-1.411c-2.97-1.071-4.62-2.65-4.647-4.445l1.967-0.029     c0.012,0.879,1.295,1.884,3.347,2.625c2.449,0.883,5.725,1.355,9.197,1.291c3.482-0.05,6.734-0.604,9.155-1.558     c2.03-0.799,3.283-1.842,3.27-2.72L51.027,20c0.027,1.795-1.577,3.421-4.515,4.578c-2.637,1.039-6.135,1.64-9.848,1.694     C36.481,26.275,36.3,26.276,36.119,26.276z"/></g><g><path d="M22.961,78c-0.026-1.795,1.577-3.421,4.516-4.578c2.637-1.039,6.135-1.641,9.848-1.694     c3.711-0.062,7.227,0.445,9.893,1.407c2.971,1.071,4.621,2.649,4.647,4.445l-1.967,0.029c-0.012-0.878-1.295-1.884-3.347-2.624     c-2.449-0.883-5.713-1.345-9.197-1.291c-3.482,0.05-6.734,0.603-9.155,1.557c-2.03,0.8-3.283,1.842-3.27,2.721L22.961,78z"/></g><g><path d="M6.529,48.057c-0.56,0-1.076-0.128-1.529-0.383l0.965-1.714c0.291,0.164,0.694,0.176,1.197,0.033     c2.392-0.678,5.857-4.391,8.424-9.029c3.774-6.815,4.023-12.163,2.539-12.997l0.965-1.714c3.412,1.919,1.628,9.502-1.783,15.662     c-2.891,5.22-6.662,9.133-9.609,9.968C7.295,48,6.903,48.057,6.529,48.057z"/></g><g><path d="M19.877,76.254l-1.014-1.684c1.458-0.877,1.053-6.217-2.917-12.918c-2.702-4.562-6.273-8.172-8.684-8.781     c-0.507-0.127-0.909-0.105-1.196,0.067l-1.014-1.684c0.743-0.447,1.674-0.547,2.691-0.29c2.97,0.75,6.854,4.551,9.895,9.685     C21.227,66.708,23.232,74.236,19.877,76.254z"/></g><g><path d="M41.732,64c-4.988,0-9.106-4.125-9.179-9.148c-0.036-2.467,0.884-4.539,2.59-6.309C36.852,46.77,39.144,46,41.597,46     h0.135c4.988,0,9.105,3.844,9.178,8.867C50.984,59.962,46.927,64,41.866,64H41.732z M41.732,48h-0.106     c-1.925,0-3.724,0.512-5.066,1.904c-1.344,1.394-2.068,3.106-2.04,5.051C34.577,58.91,37.813,62,41.732,62h0.105     c3.976,0,7.164-3.093,7.105-7.105C48.885,50.94,45.65,48,41.732,48z"/></g><g><path d="M54.898,75.745c-3.413-1.92-1.628-9.502,1.783-15.662c3.706-6.694,6.656-9.186,11.692-9.875l0.267,1.948     c-4.358,0.595-6.847,2.753-10.238,8.879c-3.774,6.814-4.023,12.162-2.54,12.997L54.898,75.745z"/></g><g><path d="M68.081,47.152c-5.042-0.635-8.02-3.095-11.798-9.749c-3.477-6.124-5.341-13.687-1.95-15.642l0.984,1.703     c-1.475,0.85-1.168,6.195,2.678,12.969c3.456,6.089,5.968,8.22,10.332,8.769L68.081,47.152z"/></g><g><path d="M94.016,52.165h-1.661c-0.544,0-0.984-0.44-0.984-0.983s0.44-0.983,0.984-0.983h1.661c0.544,0,0.984,0.44,0.984,0.983     S94.56,52.165,94.016,52.165z M86.984,52.165h-2.578c-0.544,0-0.984-0.44-0.984-0.983s0.44-0.983,0.984-0.983h2.578     c0.544,0,0.984,0.44,0.984,0.983S87.528,52.165,86.984,52.165z M79.034,52.165h-2.578c-0.544,0-0.984-0.44-0.984-0.983     s0.44-0.983,0.984-0.983h2.578c0.544,0,0.984,0.44,0.984,0.983S79.578,52.165,79.034,52.165z M71.085,52.165h-2.578     c-0.544,0-0.984-0.44-0.984-0.983s0.44-0.983,0.984-0.983h2.578c0.544,0,0.984,0.44,0.984,0.983S71.628,52.165,71.085,52.165z"/></g><g><path d="M68.204,47.159c-0.539,0-0.978-0.433-0.984-0.972c-0.006-0.543,0.43-0.988,0.973-0.994l2.578-0.027     c0.004,0,0.008,0,0.011,0c0.539,0,0.978,0.433,0.984,0.972c0.006,0.543-0.43,0.988-0.973,0.994l-2.578,0.027     C68.21,47.159,68.206,47.159,68.204,47.159z M76.153,47.074c-0.539,0-0.978-0.433-0.984-0.972     c-0.006-0.543,0.43-0.988,0.973-0.994l2.578-0.027c0.004,0,0.008,0,0.011,0c0.539,0,0.978,0.433,0.984,0.972     c0.006,0.543-0.43,0.988-0.973,0.994l-2.578,0.027C76.16,47.074,76.156,47.074,76.153,47.074z M84.102,46.99     c-0.539,0-0.978-0.433-0.984-0.972c-0.006-0.543,0.429-0.988,0.973-0.994l2.578-0.028c0.581,0.017,0.989,0.429,0.994,0.972     c0.006,0.543-0.429,0.988-0.973,0.994l-2.578,0.028C84.109,46.99,84.106,46.99,84.102,46.99z M92.052,46.905     c-0.539,0-0.978-0.433-0.984-0.972c-0.006-0.543,0.43-0.988,0.973-0.994l1.66-0.018c0.538,0.024,0.989,0.43,0.994,0.972     c0.006,0.543-0.43,0.988-0.973,0.994l-1.66,0.018C92.058,46.905,92.056,46.905,92.052,46.905z"/></g></g></g></svg>
